# Blender 4.4.0
# www.blender.org
mtllib tableLong.mtl
o Cube.035
v -29.254354 -10.992294 5.611771
v -29.254354 -11.132311 5.611771
v -31.587961 -10.992294 5.611771
v -31.587961 -11.132311 5.611771
v -29.254354 -10.992294 -2.322495
v -29.254354 -11.132311 -2.322495
v -31.587961 -10.992294 -2.322495
v -31.587961 -11.132311 -2.322495
v -29.383070 -11.302454 4.874980
v -29.383070 -11.103917 4.874980
v -31.454964 -11.302454 4.874980
v -31.454964 -11.103917 4.874980
v -29.383070 -11.302454 -1.442865
v -29.383070 -11.103917 -1.442865
v -31.454964 -11.302454 -1.442865
v -31.454964 -11.103917 -1.442865
v -29.737692 -11.302454 4.874980
v -31.454964 -11.302454 4.287302
v -31.100342 -11.302454 -1.442865
v -29.383070 -11.302454 -0.855187
v -31.100344 -11.302454 4.874980
v -31.454964 -11.302454 -0.855187
v -29.737690 -11.302454 -1.442865
v -29.383070 -11.302454 4.287302
v -31.100342 -11.302454 -0.855187
v -31.100344 -11.302454 4.287302
v -29.737692 -11.302454 4.287302
v -29.737690 -11.302454 -0.855187
v -29.737692 -11.991834 4.874980
v -29.383070 -11.991834 4.874980
v -31.454964 -11.991834 4.287302
v -31.454964 -11.991834 4.874980
v -31.100342 -11.991834 -1.442865
v -31.454964 -11.991834 -1.442865
v -29.383070 -11.991834 -0.855187
v -29.383070 -11.991834 -1.442865
v -31.100344 -11.991834 4.874980
v -31.454964 -11.991834 -0.855187
v -29.737690 -11.991834 -1.442865
v -29.383070 -11.991834 4.287302
v -31.100342 -11.991834 -0.855187
v -31.100344 -11.991834 4.287302
v -29.737692 -11.991834 4.287302
v -29.737690 -11.991834 -0.855187
vn -0.0000 -0.0000 1.0000
vn -1.0000 -0.0000 -0.0000
vn -0.0000 -0.0000 -1.0000
vn 1.0000 -0.0000 -0.0000
vn -0.0000 1.0000 -0.0000
vn -0.0000 -1.0000 -0.0000
vt 0.625000 0.000000
vt 0.375000 0.250000
vt 0.375000 0.000000
vt 0.625000 0.250000
vt 0.375000 0.500000
vt 0.625000 0.500000
vt 0.375000 0.750000
vt 0.625000 0.750000
vt 0.375000 1.000000
vt 0.125000 0.750000
vt 0.125000 0.500000
vt 0.875000 0.500000
vt 0.375000 0.187500
vt 0.375000 0.437500
vt 0.375000 0.687500
vt 0.375000 0.937500
vt 0.187500 0.687500
vt 0.125000 0.687500
vt 0.125000 0.562500
vt 0.187500 0.562500
vt 0.312500 0.687500
vt 0.375000 0.562500
vt 0.312500 0.500000
vt 0.187500 0.500000
vt 0.375000 0.312500
vt 0.187500 0.750000
vt 0.312500 0.562500
vt 0.312500 0.750000
vt 0.375000 0.062500
vt 0.375000 0.812500
vt 0.625000 1.000000
vt 0.875000 0.750000
s 0
usemtl Material.008
f 2/1/1 1/3/1 3/2/1
f 4/4/2 3/2/2 7/5/2
f 8/6/3 7/5/3 5/7/3
f 6/8/4 5/7/4 1/9/4
f 7/5/5 3/11/5 1/10/5
f 4/12/6 8/6/6 6/8/6
f 2/1/1 3/2/1 4/4/1
f 4/4/2 7/5/2 8/6/2
f 8/6/3 5/7/3 6/8/3
f 6/8/4 1/9/4 2/31/4
f 7/5/5 1/10/5 5/7/5
f 4/12/6 6/8/6 2/32/6
usemtl Material.007
f 10/1/3 21/13/3 11/2/3
f 12/4/4 22/14/4 15/5/4
f 16/6/1 23/15/1 13/7/1
f 14/8/2 24/16/2 9/9/2
f 27/17/4 17/18/4 29/18/4
f 12/12/6 16/6/6 14/8/6
f 27/17/5 26/20/5 21/19/5
f 28/21/5 23/15/5 19/22/5
f 9/9/2 24/16/2 40/16/2
f 22/23/5 18/24/5 26/20/5
f 18/25/4 11/2/4 32/2/4
f 13/7/1 23/15/1 39/15/1
f 28/21/5 27/17/5 24/26/5
f 28/21/5 25/27/5 26/20/5
f 39/15/5 44/21/5 35/28/5
f 34/5/5 38/23/5 41/27/5
f 31/24/5 32/11/5 37/19/5
f 43/17/5 29/18/5 30/10/5
f 22/23/3 25/27/3 41/27/3
f 28/21/3 20/28/3 35/28/3
f 25/27/2 19/22/2 33/22/2
f 19/22/1 15/5/1 34/5/1
f 26/20/1 18/24/1 31/24/1
f 17/29/3 9/3/3 30/3/3
f 21/19/2 26/20/2 42/20/2
f 11/2/3 21/13/3 37/13/3
f 23/15/4 28/21/4 44/21/4
f 15/5/4 22/14/4 38/14/4
f 20/30/2 13/7/2 36/7/2
f 24/26/1 27/17/1 43/17/1
f 17/29/3 10/1/3 9/3/3
f 10/1/3 11/2/3 12/4/3
f 21/13/3 10/1/3 17/29/3
f 18/25/4 12/4/4 11/2/4
f 12/4/4 15/5/4 16/6/4
f 22/14/4 12/4/4 18/25/4
f 19/22/1 16/6/1 15/5/1
f 16/6/1 13/7/1 14/8/1
f 23/15/1 16/6/1 19/22/1
f 20/30/2 14/8/2 13/7/2
f 14/8/2 9/9/2 10/31/2
f 24/16/2 14/8/2 20/30/2
f 27/17/4 29/18/4 43/17/4
f 12/12/6 14/8/6 10/32/6
f 27/17/5 21/19/5 17/18/5
f 28/21/5 19/22/5 25/27/5
f 9/9/2 40/16/2 30/9/2
f 22/23/5 26/20/5 25/27/5
f 18/25/4 32/2/4 31/25/4
f 13/7/1 39/15/1 36/7/1
f 28/21/5 24/26/5 20/28/5
f 28/21/5 26/20/5 27/17/5
f 39/15/5 35/28/5 36/7/5
f 34/5/5 41/27/5 33/22/5
f 31/24/5 37/19/5 42/20/5
f 43/17/5 30/10/5 40/26/5
f 22/23/3 41/27/3 38/23/3
f 28/21/3 35/28/3 44/21/3
f 25/27/2 33/22/2 41/27/2
f 19/22/1 34/5/1 33/22/1
f 26/20/1 31/24/1 42/20/1
f 17/29/3 30/3/3 29/29/3
f 21/19/2 42/20/2 37/19/2
f 11/2/3 37/13/3 32/2/3
f 23/15/4 44/21/4 39/15/4
f 15/5/4 38/14/4 34/5/4
f 20/30/2 36/7/2 35/30/2
f 24/26/1 43/17/1 40/26/1
o Cube.036
v -29.254354 -10.992294 -4.285734
v -29.254354 -11.132311 -4.285734
v -31.587961 -10.992294 -4.285734
v -31.587961 -11.132311 -4.285734
v -29.254354 -10.992294 -12.219999
v -29.254354 -11.132311 -12.219999
v -31.587961 -10.992294 -12.219999
v -31.587961 -11.132311 -12.219999
v -29.383070 -11.302454 -5.022524
v -29.383070 -11.103917 -5.022524
v -31.454964 -11.302454 -5.022524
v -31.454964 -11.103917 -5.022524
v -29.383070 -11.302454 -11.340369
v -29.383070 -11.103917 -11.340369
v -31.454964 -11.302454 -11.340369
v -31.454964 -11.103917 -11.340369
v -29.737692 -11.302454 -5.022524
v -31.454964 -11.302454 -5.610202
v -31.100342 -11.302454 -11.340369
v -29.383070 -11.302454 -10.752691
v -31.100344 -11.302454 -5.022524
v -31.454964 -11.302454 -10.752691
v -29.737690 -11.302454 -11.340369
v -29.383070 -11.302454 -5.610202
v -31.100342 -11.302454 -10.752691
v -31.100344 -11.302454 -5.610202
v -29.737692 -11.302454 -5.610202
v -29.737690 -11.302454 -10.752691
v -29.737692 -11.991834 -5.022524
v -29.383070 -11.991834 -5.022524
v -31.454964 -11.991834 -5.610202
v -31.454964 -11.991834 -5.022524
v -31.100342 -11.991834 -11.340369
v -31.454964 -11.991834 -11.340369
v -29.383070 -11.991834 -10.752691
v -29.383070 -11.991834 -11.340369
v -31.100344 -11.991834 -5.022524
v -31.454964 -11.991834 -10.752691
v -29.737690 -11.991834 -11.340369
v -29.383070 -11.991834 -5.610202
v -31.100342 -11.991834 -10.752691
v -31.100344 -11.991834 -5.610202
v -29.737692 -11.991834 -5.610202
v -29.737690 -11.991834 -10.752691
vn -0.0000 -0.0000 1.0000
vn -1.0000 -0.0000 -0.0000
vn -0.0000 -0.0000 -1.0000
vn 1.0000 -0.0000 -0.0000
vn -0.0000 1.0000 -0.0000
vn -0.0000 -1.0000 -0.0000
vt 0.625000 0.000000
vt 0.375000 0.250000
vt 0.375000 0.000000
vt 0.625000 0.250000
vt 0.375000 0.500000
vt 0.625000 0.500000
vt 0.375000 0.750000
vt 0.625000 0.750000
vt 0.375000 1.000000
vt 0.125000 0.750000
vt 0.125000 0.500000
vt 0.875000 0.500000
vt 0.375000 0.187500
vt 0.375000 0.437500
vt 0.375000 0.687500
vt 0.375000 0.937500
vt 0.187500 0.687500
vt 0.125000 0.687500
vt 0.125000 0.562500
vt 0.187500 0.562500
vt 0.312500 0.687500
vt 0.375000 0.562500
vt 0.312500 0.500000
vt 0.187500 0.500000
vt 0.375000 0.312500
vt 0.187500 0.750000
vt 0.312500 0.562500
vt 0.312500 0.750000
vt 0.375000 0.062500
vt 0.375000 0.812500
vt 0.625000 1.000000
vt 0.875000 0.750000
s 0
usemtl Material.008
f 46/33/7 45/35/7 47/34/7
f 48/36/8 47/34/8 51/37/8
f 52/38/9 51/37/9 49/39/9
f 50/40/10 49/39/10 45/41/10
f 51/37/11 47/43/11 45/42/11
f 48/44/12 52/38/12 50/40/12
f 46/33/7 47/34/7 48/36/7
f 48/36/8 51/37/8 52/38/8
f 52/38/9 49/39/9 50/40/9
f 50/40/10 45/41/10 46/63/10
f 51/37/11 45/42/11 49/39/11
f 48/44/12 50/40/12 46/64/12
usemtl Material.007
f 54/33/9 65/45/9 55/34/9
f 56/36/10 66/46/10 59/37/10
f 60/38/7 67/47/7 57/39/7
f 58/40/8 68/48/8 53/41/8
f 71/49/10 61/50/10 73/50/10
f 56/44/12 60/38/12 58/40/12
f 71/49/11 70/52/11 65/51/11
f 72/53/11 67/47/11 63/54/11
f 53/41/8 68/48/8 84/48/8
f 66/55/11 62/56/11 70/52/11
f 62/57/10 55/34/10 76/34/10
f 57/39/7 67/47/7 83/47/7
f 72/53/11 71/49/11 68/58/11
f 72/53/11 69/59/11 70/52/11
f 83/47/11 88/53/11 79/60/11
f 78/37/11 82/55/11 85/59/11
f 75/56/11 76/43/11 81/51/11
f 87/49/11 73/50/11 74/42/11
f 66/55/9 69/59/9 85/59/9
f 72/53/9 64/60/9 79/60/9
f 69/59/8 63/54/8 77/54/8
f 63/54/7 59/37/7 78/37/7
f 70/52/7 62/56/7 75/56/7
f 61/61/9 53/35/9 74/35/9
f 65/51/8 70/52/8 86/52/8
f 55/34/9 65/45/9 81/45/9
f 67/47/10 72/53/10 88/53/10
f 59/37/10 66/46/10 82/46/10
f 64/62/8 57/39/8 80/39/8
f 68/58/7 71/49/7 87/49/7
f 61/61/9 54/33/9 53/35/9
f 54/33/9 55/34/9 56/36/9
f 65/45/9 54/33/9 61/61/9
f 62/57/10 56/36/10 55/34/10
f 56/36/10 59/37/10 60/38/10
f 66/46/10 56/36/10 62/57/10
f 63/54/7 60/38/7 59/37/7
f 60/38/7 57/39/7 58/40/7
f 67/47/7 60/38/7 63/54/7
f 64/62/8 58/40/8 57/39/8
f 58/40/8 53/41/8 54/63/8
f 68/48/8 58/40/8 64/62/8
f 71/49/10 73/50/10 87/49/10
f 56/44/12 58/40/12 54/64/12
f 71/49/11 65/51/11 61/50/11
f 72/53/11 63/54/11 69/59/11
f 53/41/8 84/48/8 74/41/8
f 66/55/11 70/52/11 69/59/11
f 62/57/10 76/34/10 75/57/10
f 57/39/7 83/47/7 80/39/7
f 72/53/11 68/58/11 64/60/11
f 72/53/11 70/52/11 71/49/11
f 83/47/11 79/60/11 80/39/11
f 78/37/11 85/59/11 77/54/11
f 75/56/11 81/51/11 86/52/11
f 87/49/11 74/42/11 84/58/11
f 66/55/9 85/59/9 82/55/9
f 72/53/9 79/60/9 88/53/9
f 69/59/8 77/54/8 85/59/8
f 63/54/7 78/37/7 77/54/7
f 70/52/7 75/56/7 86/52/7
f 61/61/9 74/35/9 73/61/9
f 65/51/8 86/52/8 81/51/8
f 55/34/9 81/45/9 76/34/9
f 67/47/10 88/53/10 83/47/10
f 59/37/10 82/46/10 78/37/10
f 64/62/8 80/39/8 79/62/8
f 68/58/7 87/49/7 84/58/7
o Cube.064
v 26.485474 -11.136365 3.130972
v 26.485474 -11.276381 3.130972
v 27.637693 -11.136365 5.160285
v 27.637693 -11.276381 5.160285
v 19.585806 -11.136365 7.048520
v 19.585806 -11.276381 7.048520
v 20.738026 -11.136365 9.077833
v 20.738026 -11.276381 9.077833
v 25.908310 -11.446525 3.606694
v 25.908310 -11.247988 3.606694
v 26.931309 -11.446525 5.408421
v 26.931309 -11.247988 5.408421
v 20.414289 -11.446525 6.726133
v 20.414289 -11.247988 6.726133
v 21.437288 -11.446525 8.527860
v 21.437288 -11.247988 8.527860
v 26.083405 -11.446525 3.915074
v 26.420263 -11.446525 5.698587
v 21.262194 -11.446525 8.219481
v 20.925337 -11.446525 6.435966
v 26.756216 -11.446525 5.100041
v 21.948336 -11.446525 8.237694
v 20.589384 -11.446525 7.034513
v 25.397264 -11.446525 3.896861
v 21.773241 -11.446525 7.929314
v 26.245169 -11.446525 5.390207
v 25.572359 -11.446525 4.205240
v 21.100431 -11.446525 6.744347
v 26.083405 -12.135904 3.915074
v 25.908310 -12.135904 3.606694
v 26.420263 -12.135904 5.698587
v 26.931309 -12.135904 5.408421
v 21.262194 -12.135904 8.219481
v 21.437288 -12.135904 8.527860
v 20.925337 -12.135904 6.435966
v 20.414289 -12.135904 6.726133
v 26.756216 -12.135904 5.100041
v 21.948336 -12.135904 8.237694
v 20.589384 -12.135904 7.034513
v 25.397264 -12.135904 3.896861
v 21.773241 -12.135904 7.929314
v 26.245169 -12.135904 5.390207
v 25.572359 -12.135904 4.205240
v 21.100431 -12.135904 6.744347
vn 0.8696 -0.0000 -0.4938
vn 0.4938 -0.0000 0.8696
vn -0.8696 -0.0000 0.4938
vn -0.4938 -0.0000 -0.8696
vn -0.0000 1.0000 -0.0000
vn -0.0000 -1.0000 -0.0000
vt 0.625000 0.000000
vt 0.375000 0.250000
vt 0.375000 0.000000
vt 0.625000 0.250000
vt 0.375000 0.500000
vt 0.625000 0.500000
vt 0.375000 0.750000
vt 0.625000 0.750000
vt 0.375000 1.000000
vt 0.125000 0.750000
vt 0.125000 0.500000
vt 0.875000 0.500000
vt 0.375000 0.187500
vt 0.375000 0.437500
vt 0.375000 0.687500
vt 0.375000 0.937500
vt 0.187500 0.687500
vt 0.125000 0.687500
vt 0.125000 0.562500
vt 0.187500 0.562500
vt 0.312500 0.687500
vt 0.375000 0.562500
vt 0.312500 0.500000
vt 0.187500 0.500000
vt 0.375000 0.312500
vt 0.187500 0.750000
vt 0.312500 0.562500
vt 0.312500 0.750000
vt 0.375000 0.062500
vt 0.375000 0.812500
vt 0.625000 1.000000
vt 0.875000 0.750000
s 0
usemtl Material.008
f 90/65/13 89/67/13 91/66/13
f 92/68/14 91/66/14 95/69/14
f 96/70/15 95/69/15 93/71/15
f 94/72/16 93/71/16 89/73/16
f 95/69/17 91/75/17 89/74/17
f 92/76/18 96/70/18 94/72/18
f 90/65/13 91/66/13 92/68/13
f 92/68/14 95/69/14 96/70/14
f 96/70/15 93/71/15 94/72/15
f 94/72/16 89/73/16 90/95/16
f 95/69/17 89/74/17 93/71/17
f 92/76/18 94/72/18 90/96/18
usemtl Material.007
f 98/65/15 109/77/15 99/66/15
f 100/68/16 110/78/16 103/69/16
f 104/70/13 111/79/13 101/71/13
f 102/72/14 112/80/14 97/73/14
f 115/81/16 105/82/16 117/82/16
f 100/76/18 104/70/18 102/72/18
f 115/81/17 114/84/17 109/83/17
f 116/85/17 111/79/17 107/86/17
f 97/73/14 112/80/14 128/80/14
f 110/87/17 106/88/17 114/84/17
f 106/89/16 99/66/16 120/66/16
f 101/71/13 111/79/13 127/79/13
f 116/85/17 115/81/17 112/90/17
f 116/85/17 113/91/17 114/84/17
f 127/79/17 132/85/17 123/92/17
f 122/69/17 126/87/17 129/91/17
f 119/88/17 120/75/17 125/83/17
f 131/81/17 117/82/17 118/74/17
f 110/87/15 113/91/15 129/91/15
f 116/85/15 108/92/15 123/92/15
f 113/91/14 107/86/14 121/86/14
f 107/86/13 103/69/13 122/69/13
f 114/84/13 106/88/13 119/88/13
f 105/93/15 97/67/15 118/67/15
f 109/83/14 114/84/14 130/84/14
f 99/66/15 109/77/15 125/77/15
f 111/79/16 116/85/16 132/85/16
f 103/69/16 110/78/16 126/78/16
f 108/94/14 101/71/14 124/71/14
f 112/90/13 115/81/13 131/81/13
f 105/93/15 98/65/15 97/67/15
f 98/65/15 99/66/15 100/68/15
f 109/77/15 98/65/15 105/93/15
f 106/89/16 100/68/16 99/66/16
f 100/68/16 103/69/16 104/70/16
f 110/78/16 100/68/16 106/89/16
f 107/86/13 104/70/13 103/69/13
f 104/70/13 101/71/13 102/72/13
f 111/79/13 104/70/13 107/86/13
f 108/94/14 102/72/14 101/71/14
f 102/72/14 97/73/14 98/95/14
f 112/80/14 102/72/14 108/94/14
f 115/81/16 117/82/16 131/81/16
f 100/76/18 102/72/18 98/96/18
f 115/81/17 109/83/17 105/82/17
f 116/85/17 107/86/17 113/91/17
f 97/73/14 128/80/14 118/73/14
f 110/87/17 114/84/17 113/91/17
f 106/89/16 120/66/16 119/89/16
f 101/71/13 127/79/13 124/71/13
f 116/85/17 112/90/17 108/92/17
f 116/85/17 114/84/17 115/81/17
f 127/79/17 123/92/17 124/71/17
f 122/69/17 129/91/17 121/86/17
f 119/88/17 125/83/17 130/84/17
f 131/81/17 118/74/17 128/90/17
f 110/87/15 129/91/15 126/87/15
f 116/85/15 123/92/15 132/85/15
f 113/91/14 121/86/14 129/91/14
f 107/86/13 122/69/13 121/86/13
f 114/84/13 119/88/13 130/84/13
f 105/93/15 118/67/15 117/93/15
f 109/83/14 130/84/14 125/83/14
f 99/66/15 125/77/15 120/66/15
f 111/79/16 132/85/16 127/79/16
f 103/69/16 126/78/16 122/69/16
f 108/94/14 124/71/14 123/94/14
f 112/90/13 131/81/13 128/90/13
