# Blender 4.4.0
# www.blender.org
mtllib dividers.mtl
o Cube.037
v -9.704992 -12.135904 -5.195376
v -9.704992 -8.634142 -5.195376
v -9.704992 -12.135904 -5.230394
v -9.704992 -8.634142 -5.230394
v -6.203230 -12.135904 -5.195376
v -6.203230 -8.634142 -5.195376
v -6.203230 -12.135904 -5.230394
v -6.203230 -8.634142 -5.230394
vn -1.0000 -0.0000 -0.0000
vn -0.0000 -0.0000 -1.0000
vn 1.0000 -0.0000 -0.0000
vn -0.0000 -0.0000 1.0000
vn -0.0000 -1.0000 -0.0000
vn -0.0000 1.0000 -0.0000
vt 0.625000 0.000000
vt 0.375000 0.250000
vt 0.375000 0.000000
vt 1.003181 1.003181
vt -0.003181 -0.003181
vt 1.003181 -0.003181
vt 0.625000 0.500000
vt 0.375000 0.750000
vt 0.375000 0.500000
vt 1.000108 1.000108
vt -0.000108 -0.000108
vt 1.000108 -0.000108
vt 0.125000 0.750000
vt 0.125000 0.500000
vt 0.875000 0.500000
vt 0.625000 0.750000
vt 0.625000 0.250000
vt -0.003181 1.003181
vt -0.000108 1.000108
vt 0.875000 0.750000
s 0
usemtl Material.005
f 2/1/1 3/2/1 1/3/1
f 4/4/2 7/5/2 3/6/2
f 8/7/3 5/8/3 7/9/3
f 6/10/4 1/11/4 5/12/4
f 7/9/5 1/13/5 3/14/5
f 4/15/6 6/16/6 8/7/6
f 2/1/1 4/17/1 3/2/1
f 4/4/2 8/18/2 7/5/2
f 8/7/3 6/16/3 5/8/3
f 6/10/4 2/19/4 1/11/4
f 7/9/5 5/8/5 1/13/5
f 4/15/6 2/20/6 6/16/6
o Cube.042
v -6.207046 -12.135904 -5.195376
v -6.207046 -8.634142 -5.195376
v -6.207046 -12.135904 -5.230394
v -6.207046 -8.634142 -5.230394
v -2.705285 -12.135904 -5.195376
v -2.705285 -8.634142 -5.195376
v -2.705285 -12.135904 -5.230394
v -2.705285 -8.634142 -5.230394
vn -1.0000 -0.0000 -0.0000
vn -0.0000 -0.0000 -1.0000
vn 1.0000 -0.0000 -0.0000
vn -0.0000 -0.0000 1.0000
vn -0.0000 -1.0000 -0.0000
vn -0.0000 1.0000 -0.0000
vt 0.625000 0.000000
vt 0.375000 0.250000
vt 0.375000 0.000000
vt 1.003181 1.003181
vt -0.003181 -0.003181
vt 1.003181 -0.003181
vt 0.625000 0.500000
vt 0.375000 0.750000
vt 0.375000 0.500000
vt 1.000108 1.000108
vt -0.000108 -0.000108
vt 1.000108 -0.000108
vt 0.125000 0.750000
vt 0.125000 0.500000
vt 0.875000 0.500000
vt 0.625000 0.750000
vt 0.625000 0.250000
vt -0.003181 1.003181
vt -0.000108 1.000108
vt 0.875000 0.750000
s 0
usemtl Material.005
f 10/21/7 11/22/7 9/23/7
f 12/24/8 15/25/8 11/26/8
f 16/27/9 13/28/9 15/29/9
f 14/30/10 9/31/10 13/32/10
f 15/29/11 9/33/11 11/34/11
f 12/35/12 14/36/12 16/27/12
f 10/21/7 12/37/7 11/22/7
f 12/24/8 16/38/8 15/25/8
f 16/27/9 14/36/9 13/28/9
f 14/30/10 10/39/10 9/31/10
f 15/29/11 13/28/11 9/33/11
f 12/35/12 10/40/12 14/36/12
o Cube.043
v 17.606831 -12.135904 -5.195376
v 17.606831 -8.634142 -5.195376
v 17.606831 -12.135904 -5.230394
v 17.606831 -8.634142 -5.230394
v 21.108593 -12.135904 -5.195376
v 21.108593 -8.634142 -5.195376
v 21.108593 -12.135904 -5.230394
v 21.108593 -8.634142 -5.230394
vn -1.0000 -0.0000 -0.0000
vn -0.0000 -0.0000 -1.0000
vn 1.0000 -0.0000 -0.0000
vn -0.0000 -0.0000 1.0000
vn -0.0000 -1.0000 -0.0000
vn -0.0000 1.0000 -0.0000
vt 0.625000 0.000000
vt 0.375000 0.250000
vt 0.375000 0.000000
vt 1.003181 1.003181
vt -0.003181 -0.003181
vt 1.003181 -0.003181
vt 0.625000 0.500000
vt 0.375000 0.750000
vt 0.375000 0.500000
vt 1.000108 1.000108
vt -0.000108 -0.000108
vt 1.000108 -0.000108
vt 0.125000 0.750000
vt 0.125000 0.500000
vt 0.875000 0.500000
vt 0.625000 0.750000
vt 0.625000 0.250000
vt -0.003181 1.003181
vt -0.000108 1.000108
vt 0.875000 0.750000
s 0
usemtl Material.005
f 18/41/13 19/42/13 17/43/13
f 20/44/14 23/45/14 19/46/14
f 24/47/15 21/48/15 23/49/15
f 22/50/16 17/51/16 21/52/16
f 23/49/17 17/53/17 19/54/17
f 20/55/18 22/56/18 24/47/18
f 18/41/13 20/57/13 19/42/13
f 20/44/14 24/58/14 23/45/14
f 24/47/15 22/56/15 21/48/15
f 22/50/16 18/59/16 17/51/16
f 23/49/17 21/48/17 17/53/17
f 20/55/18 18/60/18 22/56/18
o Cube.046
v 21.104776 -12.135904 -5.195376
v 21.104776 -8.634142 -5.195376
v 21.104776 -12.135904 -5.230394
v 21.104776 -8.634142 -5.230394
v 24.606539 -12.135904 -5.195376
v 24.606539 -8.634142 -5.195376
v 24.606539 -12.135904 -5.230394
v 24.606539 -8.634142 -5.230394
vn -1.0000 -0.0000 -0.0000
vn -0.0000 -0.0000 -1.0000
vn 1.0000 -0.0000 -0.0000
vn -0.0000 -0.0000 1.0000
vn -0.0000 -1.0000 -0.0000
vn -0.0000 1.0000 -0.0000
vt 0.625000 0.000000
vt 0.375000 0.250000
vt 0.375000 0.000000
vt 1.003181 1.003181
vt -0.003181 -0.003181
vt 1.003181 -0.003181
vt 0.625000 0.500000
vt 0.375000 0.750000
vt 0.375000 0.500000
vt 1.000108 1.000108
vt -0.000108 -0.000108
vt 1.000108 -0.000108
vt 0.125000 0.750000
vt 0.125000 0.500000
vt 0.875000 0.500000
vt 0.625000 0.750000
vt 0.625000 0.250000
vt -0.003181 1.003181
vt -0.000108 1.000108
vt 0.875000 0.750000
s 0
usemtl Material.005
f 26/61/19 27/62/19 25/63/19
f 28/64/20 31/65/20 27/66/20
f 32/67/21 29/68/21 31/69/21
f 30/70/22 25/71/22 29/72/22
f 31/69/23 25/73/23 27/74/23
f 28/75/24 30/76/24 32/67/24
f 26/61/19 28/77/19 27/62/19
f 28/64/20 32/78/20 31/65/20
f 32/67/21 30/76/21 29/68/21
f 30/70/22 26/79/22 25/71/22
f 31/69/23 29/68/23 25/73/23
f 28/75/24 26/80/24 30/76/24
o Cube.055
v 1.341432 -12.135904 5.185987
v 1.341432 -8.634142 5.185987
v 1.376449 -12.135904 5.185987
v 1.376449 -8.634142 5.185987
v 1.341432 -12.135904 8.687749
v 1.341432 -8.634142 8.687749
v 1.376450 -12.135904 8.687749
v 1.376450 -8.634142 8.687749
vn -0.0000 -0.0000 -1.0000
vn 1.0000 -0.0000 -0.0000
vn -0.0000 -0.0000 1.0000
vn -1.0000 -0.0000 -0.0000
vn -0.0000 -1.0000 -0.0000
vn -0.0000 1.0000 -0.0000
vt 0.625000 0.000000
vt 0.375000 0.250000
vt 0.375000 0.000000
vt 1.003181 1.003181
vt -0.003181 -0.003181
vt 1.003181 -0.003181
vt 0.625000 0.500000
vt 0.375000 0.750000
vt 0.375000 0.500000
vt 1.000108 1.000108
vt -0.000108 -0.000108
vt 1.000108 -0.000108
vt 0.125000 0.750000
vt 0.125000 0.500000
vt 0.875000 0.500000
vt 0.625000 0.750000
vt 0.625000 0.250000
vt -0.003181 1.003181
vt -0.000108 1.000108
vt 0.875000 0.750000
s 0
usemtl Material.005
f 34/81/25 35/82/25 33/83/25
f 36/84/26 39/85/26 35/86/26
f 40/87/27 37/88/27 39/89/27
f 38/90/28 33/91/28 37/92/28
f 39/89/29 33/93/29 35/94/29
f 36/95/30 38/96/30 40/87/30
f 34/81/25 36/97/25 35/82/25
f 36/84/26 40/98/26 39/85/26
f 40/87/27 38/96/27 37/88/27
f 38/90/28 34/99/28 33/91/28
f 39/89/29 37/88/29 33/93/29
f 36/95/30 34/100/30 38/96/30
o Cube.056
v 1.341432 -12.135904 1.695246
v 1.341432 -8.634142 1.695246
v 1.376449 -12.135904 1.695246
v 1.376449 -8.634142 1.695246
v 1.341432 -12.135904 5.197007
v 1.341432 -8.634142 5.197007
v 1.376450 -12.135904 5.197007
v 1.376450 -8.634142 5.197007
vn -0.0000 -0.0000 -1.0000
vn 1.0000 -0.0000 -0.0000
vn -0.0000 -0.0000 1.0000
vn -1.0000 -0.0000 -0.0000
vn -0.0000 -1.0000 -0.0000
vn -0.0000 1.0000 -0.0000
vt 0.625000 0.000000
vt 0.375000 0.250000
vt 0.375000 0.000000
vt 1.003181 1.003181
vt -0.003181 -0.003181
vt 1.003181 -0.003181
vt 0.625000 0.500000
vt 0.375000 0.750000
vt 0.375000 0.500000
vt 1.000108 1.000108
vt -0.000108 -0.000108
vt 1.000108 -0.000108
vt 0.125000 0.750000
vt 0.125000 0.500000
vt 0.875000 0.500000
vt 0.625000 0.750000
vt 0.625000 0.250000
vt -0.003181 1.003181
vt -0.000108 1.000108
vt 0.875000 0.750000
s 0
usemtl Material.005
f 42/101/31 43/102/31 41/103/31
f 44/104/32 47/105/32 43/106/32
f 48/107/33 45/108/33 47/109/33
f 46/110/34 41/111/34 45/112/34
f 47/109/35 41/113/35 43/114/35
f 44/115/36 46/116/36 48/107/36
f 42/101/31 44/117/31 43/102/31
f 44/104/32 48/118/32 47/105/32
f 48/107/33 46/116/33 45/108/33
f 46/110/34 42/119/34 41/111/34
f 47/109/35 45/108/35 41/113/35
f 44/115/36 42/120/36 46/116/36
o Cube.057
v -21.949696 -12.135904 -0.475252
v -21.949696 -8.634142 -0.475252
v -21.949696 -12.135904 -0.510270
v -21.949696 -8.634142 -0.510270
v -18.447933 -12.135904 -0.475252
v -18.447933 -8.634142 -0.475252
v -18.447933 -12.135904 -0.510270
v -18.447933 -8.634142 -0.510270
vn -1.0000 -0.0000 -0.0000
vn -0.0000 -0.0000 -1.0000
vn 1.0000 -0.0000 -0.0000
vn -0.0000 -0.0000 1.0000
vn -0.0000 -1.0000 -0.0000
vn -0.0000 1.0000 -0.0000
vt 0.625000 0.000000
vt 0.375000 0.250000
vt 0.375000 0.000000
vt 1.003181 1.003181
vt -0.003181 -0.003181
vt 1.003181 -0.003181
vt 0.625000 0.500000
vt 0.375000 0.750000
vt 0.375000 0.500000
vt 1.000108 1.000108
vt -0.000108 -0.000108
vt 1.000108 -0.000108
vt 0.125000 0.750000
vt 0.125000 0.500000
vt 0.875000 0.500000
vt 0.625000 0.750000
vt 0.625000 0.250000
vt -0.003181 1.003181
vt -0.000108 1.000108
vt 0.875000 0.750000
s 0
usemtl Material.005
f 50/121/37 51/122/37 49/123/37
f 52/124/38 55/125/38 51/126/38
f 56/127/39 53/128/39 55/129/39
f 54/130/40 49/131/40 53/132/40
f 55/129/41 49/133/41 51/134/41
f 52/135/42 54/136/42 56/127/42
f 50/121/37 52/137/37 51/122/37
f 52/124/38 56/138/38 55/125/38
f 56/127/39 54/136/39 53/128/39
f 54/130/40 50/139/40 49/131/40
f 55/129/41 53/128/41 49/133/41
f 52/135/42 50/140/42 54/136/42
o Cube.059
v -18.451748 -12.135904 -0.475252
v -18.451748 -8.634142 -0.475252
v -18.451748 -12.135904 -0.510270
v -18.451748 -8.634142 -0.510270
v -14.949986 -12.135904 -0.475252
v -14.949986 -8.634142 -0.475252
v -14.949986 -12.135904 -0.510270
v -14.949986 -8.634142 -0.510270
vn -1.0000 -0.0000 -0.0000
vn -0.0000 -0.0000 -1.0000
vn 1.0000 -0.0000 -0.0000
vn -0.0000 -0.0000 1.0000
vn -0.0000 -1.0000 -0.0000
vn -0.0000 1.0000 -0.0000
vt 0.625000 0.000000
vt 0.375000 0.250000
vt 0.375000 0.000000
vt 1.003181 1.003181
vt -0.003181 -0.003181
vt 1.003181 -0.003181
vt 0.625000 0.500000
vt 0.375000 0.750000
vt 0.375000 0.500000
vt 1.000108 1.000108
vt -0.000108 -0.000108
vt 1.000108 -0.000108
vt 0.125000 0.750000
vt 0.125000 0.500000
vt 0.875000 0.500000
vt 0.625000 0.750000
vt 0.625000 0.250000
vt -0.003181 1.003181
vt -0.000108 1.000108
vt 0.875000 0.750000
s 0
usemtl Material.005
f 58/141/43 59/142/43 57/143/43
f 60/144/44 63/145/44 59/146/44
f 64/147/45 61/148/45 63/149/45
f 62/150/46 57/151/46 61/152/46
f 63/149/47 57/153/47 59/154/47
f 60/155/48 62/156/48 64/147/48
f 58/141/43 60/157/43 59/142/43
f 60/144/44 64/158/44 63/145/44
f 64/147/45 62/156/45 61/148/45
f 62/150/46 58/159/46 57/151/46
f 63/149/47 61/148/47 57/153/47
f 60/155/48 58/160/48 62/156/48
